# AST/ASF file generated using VICON BodyLanguage
# -----------------------------------------------
:version 1.10
:name VICON
:units
  mass 1.0
  length 0.45
  angle deg
:documentation
   .ast/.asf automatically generated from VICON data using
   VICON BodyBuilder and BodyLanguage model FoxedUp or BRILLIANT.MOD
:root
   order TX TY TZ RX RY RZ
   axis XYZ
   position 0 0 0  
   orientation 0 0 0 
:bonedata
  begin
     id 1 
     name lhipjoint
     direction 0.606768 -0.715223 0.346827 
     length 2.41543 
     axis 0 0 0  XYZ
  end
  begin
     id 2 
     name lfemur
     direction 0.34202 -0.939693 0  
     length 7.2778  
     axis 0 0 20  XYZ
    dof rx ry rz
    limits (-160.0 20.0)
           (-70.0 70.0)
           (-60.0 70.0)
  end
  begin
     id 3 
     name ltibia
     direction 0.34202 -0.939693 0   
     length 7.61811   
     axis 0 0 20   XYZ
    dof rx
    limits (-10.0 170.0)
  end
  begin
     id 4 
     name lfoot
     direction 0.0823924 -0.226371 0.97055   
     length 2.33618   
     axis -90 7.62852e-016 20   XYZ
    dof rx rz
    limits (-45.0 90.0)
           (-70.0 20.0)
  end
  begin
     id 5 
     name ltoes
     direction 1.53554e-011 -4.21934e-011 1   
     length 1.17015   
     axis -90 7.62852e-016 20   XYZ
    dof rx
    limits (-90.0 20.0)
  end
  begin
     id 6 
     name rhipjoint
     direction -0.6077 -0.714582 0.346516   
     length 2.4176  
     axis 0 0 0  XYZ 
  end
  begin
     id 7 
     name rfemur
     direction -0.34202 -0.939693 0   
     length 7.28127   
     axis 0 0 -20   XYZ
    dof rx ry rz
    limits (-160.0 20.0)
           (-70.0 70.0)
           (-70.0 60.0)
  end
  begin
     id 8 
     name rtibia
     direction -0.34202 -0.939693 0   
     length 7.77648   
     axis 0 0 -20   XYZ
    dof rx
    limits (-10.0 170.0)
 end
 begin
     id 9 
     name rfoot
     direction -0.0809463 -0.222398 0.97159   
     length 2.37533  
     axis -90 -7.62852e-016 -20   XYZ
    dof rx rz
    limits (-45.0 90.0)
           (-20.0 70.0)
  end
  begin
     id 10 
     name rtoes
     direction -1.53568e-011 -4.21714e-011 1   
     length 1.18972   
     axis -90 -7.62852e-016 -20   XYZ
    dof rx
    limits (-90.0 20.0)
  end
  begin
     id 11 
     name lowerback
     direction 0.010968 0.991932 -0.126297   
     length 2.21698   
     axis 0 0 0   XYZ
    dof rx ry rz
    limits (-20.0 45.0)
           (-30.0 30.0)
           (-30.0 30.0)
  end
  begin
     id 12 
     name upperback
     direction 0.0167007 0.997503 -0.0686276   
     length 2.22371   
     axis 0 0 0   XYZ
    dof rx ry rz
    limits (-20.0 45.0)
           (-30.0 30.0)
           (-30.0 30.0)
  end
  begin
     id 13 
     name thorax
     direction 0.0111721 0.999885 -0.0102878   
     length 2.25242   
     axis 0 0 0   XYZ
    dof rx ry rz
    limits (-20.0 45.0)
           (-30.0 30.0)
           (-30.0 30.0)
  end
  begin
     id 14 
     name lowerneck
     direction -0.0120265 0.990428 0.137508   
     length 1.57674   
     axis 0 0 0   XYZ
    dof rx ry rz
    limits (-20.0 45.0)
           (-30.0 30.0)
           (-30.0 30.0)
  end
  begin
     id 15 
     name upperneck
     direction 0.0175669 0.998907 0.0433089   
     length 1.5618   
     axis 0 0 0   XYZ
    dof rx ry rz
    limits (-20.0 45.0)
           (-30.0 30.0)
           (-30.0 30.0)
  end
  begin
     id 16
     name head
     direction 0.00754609 0.99997 0.00185367  
     length 1.60579  
     axis 0 0 0   XYZ
    dof rx ry rz
    limits (-20.0 45.0)
           (-30.0 30.0)
           (-30.0 30.0)
  end
  begin
     id 17 
     name lclavicle
     direction 0.885866 0.429166 -0.176231  
     length 3.44967  
     axis 0 0 0   XYZ
    dof ry rz
    limits (-20.0 10.0)
           (0.0 20.0)
  end
  begin
     id 18 
     name lhumerus
     direction 1 -4.48973e-011 -1.90255e-027   
     length 5.20607   
     axis 180 -30 -90   XYZ
    dof rx ry rz
    limits (-60.0 90.0)
           (-90.0 90.0)
           (-90.0 90.0)
  end
  begin
     id 19
     name lradius
     direction 1 -4.48956e-011 9.87925e-027   
     length 3.39961   
     axis 180 -30 -90   XYZ
    dof rx
    limits (-10.0 170.0)
  end
  begin
     id 20
     name lwrist
     direction 1 -4.48985e-011 1.73247e-026   
     length 1.6998   
     axis -9.60847e-015 90 90   XYZ
    dof ry
    limits (-180.0 0.0)
 end
  begin
     id 21 
     name lhand
     direction 1 -4.48798e-011 3.46119e-026   
     length 0.519693   
     axis -2.21073e-014 90 90   XYZ
    dof rx rz
    limits (-90.0 90.0)
           (-45.0 45.0)
  end
  begin
     id 22 
     name lfingers
     direction 1 -4.48938e-011 6.92797e-026   
     length 0.41899   
     axis -4.42155e-014 90 90   XYZ
    dof rx
    limits (0.0 90.0)
  end
  begin
     id 23
     name lthumb
     direction 0.707107 -6.34952e-011 0.707107   
     length 0.601588   
     axis -90 45 6.0103e-014   XYZ
    dof rx rz
    limits (-45.0 45.0)
           (-45.0 45.0)
  end
  begin
     id 24 
     name rclavicle
     direction -0.866736 0.456792 -0.200276   
     length 3.45032  
     axis 0 0 0   XYZ 
    dof ry rz
    limits (-10.0 20.0)
           (-20.0 0.0)
  end
  begin
     id 25 
     name rhumerus
     direction -1 -4.4897e-011 8.65094e-028  
     length 5.32214   
     axis 180 30 90   XYZ
    dof rx ry rz
    limits (-90.0 60.0)
           (-90.0 90.0)
           (-90.0 90.0)
  end
  begin
     id 26 
     name rradius
     direction -1 -4.48987e-011 1.08427e-026   
     length 3.51208   
     axis 180 30 90   XYZ
    dof rx
    limits (-10.0 170.0)
  end
  begin
     id 27 
     name rwrist
     direction -1 -4.48961e-011 1.73222e-026   
     length 1.75604   
     axis -9.60847e-015 -90 -90   XYZ
    dof ry
    limits (-180.0 0.0)
  end
  begin
     id 28
     name rhand
     direction -1 -4.48895e-011 3.46314e-026   
     length 0.586681   
     axis -2.21073e-014 -90 -90   XYZ
    dof rx rz
    limits (-90.0 90.0)
           (-45.0 45.0)
  end
  begin
     id 29
     name rfingers
     direction -1 -4.48968e-011 6.92916e-026   
     length 0.472997   
     axis -4.42155e-014 -90 -90   XYZ
    dof rx
    limits (0.0 90.0)
  end
  begin
     id 30
     name rthumb
     direction -0.707107 -6.34848e-011 0.707107   
     length 0.679133   
     axis -90 -45 -6.0103e-014   XYZ
    dof rx rz
    limits (-45.0 45.0)
           (-45.0 45.0)
  end
:hierarchy
  begin
    root lhipjoint rhipjoint lowerback
    lhipjoint lfemur
    lfemur ltibia
    ltibia lfoot
    lfoot ltoes
    rhipjoint rfemur
    rfemur rtibia
    rtibia rfoot
    rfoot rtoes
    lowerback upperback
    upperback thorax
    thorax lowerneck lclavicle rclavicle
    lowerneck upperneck
    upperneck head
    lclavicle lhumerus
    lhumerus lradius
    lradius lwrist
    lwrist lhand lthumb
    lhand lfingers
    rclavicle rhumerus
    rhumerus rradius
    rradius rwrist
    rwrist rhand rthumb
    rhand rfingers
  end

#!OML:ASF H:\Dans Jumps\Project 1\Capture day 1\Session 1\subject.ASF
:FULLY-SPECIFIED
:DEGREES
46
root 0.439304 16.4963 -15.4399 10.4435 -1.35734 -2.51876
lowerback 10.4466 -0.321084 0.58029
upperback 5.18003 -0.336339 2.666
thorax -0.45497 -0.19243 2.46921
lowerneck -14.4428 1.13146 -1.19361
upperneck 26.8618 2.37496 -1.63623
head 11.0822 0.748244 -0.0670973
rclavicle -3.18055e-015 2.3059e-014
rhumerus -6.98348 0.0371794 -80.9924
rradius 38.9562
rwrist 17.1737
rhand -23.0518 -25.4124
rfingers 7.12502
rthumb 3.39305 -55.3652
lclavicle -3.18055e-015 2.3059e-014
lhumerus -7.4259 -13.9261 84.0781
lradius 36.9344
lwrist 21.4003
lhand -29.0966 -6.38593
lfingers 7.12502
lthumb -2.44503 23.5798
rfemur -38.8446 -3.40643 21.554
rtibia 49.0395
rfoot -19.2149 -3.48727
rtoes 4.5777
lfemur -38.0838 10.8573 -18.6612
ltibia 49.4383
lfoot -19.2421 5.85381
ltoes -2.04922
47
root 0.44141 16.4478 -15.4726 10.6317 -1.46232 -2.546
lowerback 10.7521 -0.292676 0.563164
upperback 5.24799 -0.29574 2.66874
thorax -0.552028 -0.172684 2.48014
lowerneck -14.528 1.15142 -1.14742
upperneck 26.5566 2.40519 -1.70984
head 10.9861 0.761344 -0.0971294
rclavicle 9.14409e-015 1.07344e-014
rhumerus -7.16885 -0.27624 -80.8624
rradius 39.0705
rwrist 17.0082
rhand -23.128 -25.5025
rfingers 7.12502
rthumb 3.31948 -55.4564
lclavicle 9.14409e-015 1.07344e-014
lhumerus -7.61535 -13.6179 83.9571
lradius 37.1706
lwrist 21.6519
lhand -29.1478 -6.39321
lfingers 7.12502
lthumb -2.49443 23.5719
rfemur -39.6658 -3.35149 21.6022
rtibia 49.8857
rfoot -19.4341 -3.52646
rtoes 4.39002
lfemur -38.8983 10.9341 -18.7107
ltibia 50.3228
lfoot -19.4728 6.01636
ltoes -2.16695
48
root 0.443534 16.3981 -15.505 10.8214 -1.56846 -2.57735
lowerback 11.0635 -0.263878 0.544546
upperback 5.31807 -0.254837 2.67324
thorax -0.649748 -0.152861 2.49352
lowerneck -14.6245 1.16974 -1.10691
upperneck 26.2567 2.43315 -1.77817
head 10.8945 0.773344 -0.124394
rclavicle 5.96354e-016 -1.03368e-014
rhumerus -7.39809 -0.603438 -80.7323
rradius 39.1428
rwrist 16.8136
rhand -23.1454 -25.6338
rfingers 7.12502
rthumb 3.30264 -55.588
lclavicle 5.96354e-016 -1.03368e-014
lhumerus -7.84713 -13.296 83.8498
lradius 37.351
lwrist 21.8798
lhand -29.2132 -6.43073
lfingers 7.12502
lthumb -2.5576 23.5337
rfemur -40.4899 -3.28754 21.6535
rtibia 50.7363
rfoot -19.654 -3.57529
rtoes 4.19922
lfemur -39.7164 11.0045 -18.7544
ltibia 51.2111
lfoot -19.6998 6.1925
ltoes -2.29813
49
root 0.445725 16.3475 -15.537 11.0176 -1.6736 -2.6094
lowerback 11.3763 -0.236369 0.521657
upperback 5.38616 -0.216119 2.67933
thorax -0.749876 -0.134209 2.51099
lowerneck -14.7216 1.18768 -1.07717
upperneck 25.9571 2.46059 -1.83748
head 10.8034 0.785151 -0.14654
rclavicle 5.36719e-015 -6.36111e-015
rhumerus -7.6711 -0.940135 -80.6012
rradius 39.1683
rwrist 16.5926
rhand -23.0802 -25.8289
rfingers 7.12502
rthumb 3.3657 -55.7821
lclavicle 5.36719e-015 -6.36111e-015
lhumerus -8.12859 -12.9561 83.7564
lradius 37.4793
lwrist 22.0813
lhand -29.3044 -6.48122
lfingers 7.12502
lthumb -2.64565 23.4821
rfemur -41.3233 -3.22035 21.7051
rtibia 51.5916
rfoot -19.8744 -3.63163
rtoes 4.00189
lfemur -40.5427 11.0642 -18.7969
ltibia 52.1012
lfoot -19.9217 6.38245
ltoes -2.43643
